<?xml version="1.0" standalone="no"?>
<!DOCTYPE svg PUBLIC "-//W3C//DTD SVG 20010904//EN"
 "http://www.w3.org/TR/2001/REC-SVG-20010904/DTD/svg10.dtd">
<svg version="1.0" xmlns="http://www.w3.org/2000/svg"
 width="500.000000pt" height="500.000000pt" viewBox="0 0 500.000000 500.000000"
 preserveAspectRatio="xMidYMid meet">
<metadata>
Created by potrace 1.14, written by Peter Selinger 2001-2017
</metadata>
<g transform="translate(0.000000,500.000000) scale(0.100000,-0.100000)"
fill="#000000" stroke="none">
<path d="M4874 4853 c4 -82 9 -184 11 -228 3 -44 7 -170 10 -280 4 -110 8
-216 10 -235 2 -19 6 -150 10 -290 6 -248 9 -326 21 -555 3 -60 7 -164 9 -230
2 -66 6 -176 9 -245 3 -69 8 -183 11 -255 3 -71 10 -222 15 -335 6 -113 12
-232 13 -265 2 -33 4 643 5 1503 l2 1562 -66 0 -66 0 6 -147z"/>
<path d="M2535 4825 c17 -8 36 -14 43 -15 16 0 72 -37 90 -58 17 -22 15 -32
-7 -32 -10 0 -30 -10 -45 -21 -22 -18 -32 -20 -49 -11 -12 6 -54 12 -94 14
-53 3 -77 8 -93 23 -18 16 -25 17 -54 7 -18 -7 -42 -12 -53 -12 -31 0 -146
-63 -151 -82 -2 -11 -14 -18 -27 -18 -12 0 -30 -9 -40 -20 -10 -11 -26 -20
-35 -20 -27 0 -99 -109 -100 -152 0 -9 -4 -19 -9 -22 -5 -3 -11 -18 -14 -33
-3 -16 -13 -57 -21 -93 -9 -36 -22 -94 -29 -130 -8 -36 -24 -94 -35 -130 -53
-163 -64 -239 -53 -367 2 -20 49 -46 99 -55 103 -20 158 -25 174 -17 9 5 31 9
49 9 19 0 42 9 55 21 25 23 97 43 125 34 32 -10 62 4 56 27 -7 23 27 61 50 56
20 -4 51 -55 52 -84 1 -25 31 -54 55 -54 13 0 16 5 11 18 -4 9 -8 25 -9 35 -1
9 -8 23 -14 29 -7 7 -12 19 -12 28 0 8 -11 35 -25 59 -15 26 -25 59 -25 83 0
21 -4 48 -10 58 -14 26 -91 76 -126 83 -16 3 -54 13 -84 22 -36 12 -95 18
-170 20 -63 1 -121 3 -127 4 -9 1 -12 21 -12 67 1 63 3 69 38 103 63 63 80 88
68 100 -8 8 -5 19 10 40 13 16 20 37 17 48 -4 15 6 30 39 57 24 20 52 36 61
36 9 0 21 11 26 25 5 14 13 25 18 25 5 0 26 14 47 30 34 27 40 29 55 15 15
-13 21 -13 58 5 49 24 72 25 72 4 0 -8 7 -22 15 -31 16 -16 79 -15 265 6 88 9
163 -8 226 -54 44 -32 93 -85 94 -100 0 -6 14 -26 30 -44 23 -25 36 -32 53
-27 12 3 25 6 29 6 3 0 9 19 13 43 4 23 13 70 21 104 l15 62 -32 41 c-41 51
-145 120 -179 120 -15 0 -46 13 -71 29 -25 15 -70 34 -100 41 -30 7 -86 23
-126 36 -39 13 -84 24 -100 23 l-28 -1 30 -13z m-286 -967 c30 -19 33 -23 16
-27 -10 -2 -21 2 -23 8 -2 6 -14 11 -27 11 -25 0 -39 12 -28 24 11 10 24 7 62
-16z"/>
<path d="M1748 4462 c-18 -3 -25 -22 -30 -76 -4 -40 -34 -58 -54 -32 -12 18
-14 18 -14 3 0 -10 -10 -21 -23 -26 -20 -8 -23 -15 -19 -45 3 -27 9 -36 23
-36 10 0 19 -6 19 -14 0 -22 -16 -28 -30 -11 -15 18 -50 3 -50 -21 0 -13 -25
-71 -36 -83 -2 -3 -11 4 -18 15 -17 22 -31 13 -41 -28 -6 -25 -4 -28 16 -29
20 0 19 -2 -9 -13 -38 -13 -56 -38 -49 -66 3 -11 -1 -24 -9 -31 -8 -6 -14 -19
-14 -29 0 -9 -11 -38 -24 -64 -14 -27 -22 -55 -19 -63 4 -9 -1 -20 -11 -25 -9
-5 -26 -30 -38 -56 l-22 -47 -8 44 c-4 26 -4 49 2 56 6 7 13 34 16 61 4 27 10
54 14 59 12 16 16 70 5 69 -40 -4 -55 -18 -61 -55 -4 -22 -9 -39 -13 -39 -6 0
-31 -51 -35 -73 -1 -6 -10 -29 -19 -51 -9 -21 -17 -44 -17 -52 0 -7 -4 -15 -9
-18 -5 -3 -14 -30 -21 -58 -7 -29 -25 -93 -40 -143 -25 -80 -44 -145 -70 -240
-4 -16 -19 -73 -34 -125 -14 -53 -27 -117 -30 -142 -2 -26 -10 -56 -16 -68
-10 -18 -9 -21 1 -15 9 6 11 3 6 -9 -4 -10 -7 -24 -7 -32 0 -8 -6 -14 -14 -14
-15 0 -32 -37 -23 -47 7 -6 -21 -74 -40 -95 -8 -9 -12 -22 -8 -28 4 -6 1 -18
-6 -26 -13 -16 -15 -24 -23 -75 -4 -26 -48 -79 -66 -79 -6 0 -10 -13 -10 -29
0 -17 -6 -31 -16 -35 -9 -3 -14 -12 -11 -20 3 -7 -7 -27 -22 -45 -18 -21 -26
-40 -24 -55 4 -17 -1 -25 -16 -29 -14 -3 -21 -13 -21 -30 0 -13 -9 -32 -20
-42 -11 -10 -20 -27 -20 -37 0 -10 -6 -21 -14 -24 -8 -3 -17 -23 -21 -44 -7
-40 -29 -59 -39 -33 -3 8 -4 18 -1 23 3 4 -3 14 -12 21 -15 13 -16 11 -10 -12
5 -21 -1 -36 -28 -70 -19 -24 -35 -49 -35 -55 0 -6 -11 -20 -25 -32 -14 -12
-25 -30 -25 -40 0 -20 -43 -71 -83 -97 -15 -9 -27 -22 -27 -28 0 -6 -19 -29
-42 -52 -84 -83 -121 -134 -114 -161 5 -19 2 -26 -17 -33 -12 -5 -31 -21 -42
-35 -11 -14 -29 -26 -41 -26 -11 0 -23 -3 -27 -6 -9 -10 4 -34 19 -34 8 0 14
-4 14 -10 0 -5 -11 -10 -25 -10 l-25 0 0 -285 0 -285 23 5 c17 5 33 -1 55 -20
17 -15 37 -23 43 -20 17 11 59 -35 59 -66 0 -33 -14 -44 -53 -41 -23 2 -28 -1
-23 -14 3 -8 6 -22 6 -30 0 -8 11 -26 25 -39 l24 -25 33 19 c18 11 46 21 62
23 26 3 30 -1 38 -31 11 -40 -1 -53 -44 -44 -16 3 -34 0 -43 -7 -8 -7 -25 -10
-38 -6 -16 4 -28 -1 -40 -14 -9 -11 -13 -20 -9 -20 10 -1 -38 -40 -49 -40 -15
0 -30 50 -34 109 -2 32 -10 60 -19 70 -16 15 -17 8 -14 -84 l3 -99 33 -7 c57
-12 125 -106 124 -174 -1 -19 8 -40 24 -56 l24 -25 -20 -41 c-13 -27 -36 -51
-70 -73 -35 -22 -49 -38 -45 -48 3 -8 0 -21 -6 -28 -10 -12 36 -14 295 -14
280 0 306 1 306 17 0 9 -9 26 -20 38 -17 18 -19 27 -11 48 11 29 5 57 -11 57
-6 0 -8 9 -5 20 3 11 2 20 -2 20 -4 0 -16 18 -27 40 -10 22 -22 40 -26 40 -5
0 -8 22 -8 48 0 42 -4 53 -31 76 -28 26 -29 29 -15 45 14 16 15 20 2 30 -8 7
-13 18 -10 25 3 7 -2 19 -10 26 -10 7 -14 21 -10 35 3 14 0 26 -8 32 -23 14
-41 60 -34 87 4 16 1 28 -7 33 -21 13 -50 89 -42 112 3 11 3 26 -1 32 -4 7 -8
28 -10 47 -2 18 -7 39 -12 46 -12 15 -22 60 -27 123 -2 29 -9 63 -16 75 -7 13
-13 55 -13 93 -1 47 -6 74 -15 81 -10 8 -11 16 -4 29 8 13 7 28 -3 51 -7 18
-14 45 -15 61 -5 65 67 166 129 182 51 13 228 32 244 26 7 -3 51 -9 98 -13 87
-9 97 -7 187 36 25 11 36 12 46 3 22 -17 66 -150 137 -411 17 -63 36 -128 42
-145 5 -16 18 -75 28 -130 10 -55 26 -131 35 -170 15 -70 13 -119 -7 -131 -6
-4 -16 0 -22 8 -18 24 -64 50 -77 43 -12 -8 -4 -91 11 -110 4 -5 15 -35 23
-65 13 -44 15 -107 14 -323 l-2 -267 1446 0 c1430 0 1447 0 1452 20 3 13 -1
21 -14 25 -10 4 -19 11 -19 16 0 15 27 10 46 -8 17 -17 17 -17 11 7 -11 39
-16 125 -7 110 7 -11 11 -11 24 -1 10 9 29 11 58 6 41 -7 42 -7 26 11 -20 23
-24 50 -15 87 7 27 9 27 35 13 15 -7 46 -20 70 -27 23 -7 42 -18 42 -26 0 -7
7 -13 15 -13 9 0 15 -9 15 -25 0 -25 -10 -32 -24 -18 -7 7 -77 5 -84 -2 -7 -6
78 -114 98 -125 11 -6 20 -20 20 -30 0 -19 9 -20 320 -20 l320 0 0 466 0 466
-47 41 c-51 46 -187 223 -199 259 -4 13 -15 34 -25 47 -40 51 -31 55 113 48
92 -4 134 -10 140 -19 4 -7 6 -41 2 -74 -4 -40 -2 -64 5 -68 8 -5 11 44 11
171 l0 178 -167 -3 c-248 -4 -263 -8 -220 -65 13 -18 27 -43 32 -55 6 -22 5
-23 -17 -11 -12 6 -26 17 -30 23 -4 6 -8 -10 -8 -36 0 -29 5 -48 11 -48 6 0 8
-7 5 -17 -4 -9 5 -40 20 -71 23 -47 30 -53 51 -49 19 4 27 -1 34 -22 8 -18 7
-32 -1 -45 -12 -18 -5 -29 24 -39 6 -2 2 -14 -7 -27 -21 -30 -21 -70 -2 -134
17 -57 19 -86 5 -86 -5 0 -10 9 -10 20 0 12 -17 37 -37 58 -21 20 -39 46 -40
57 -6 58 -16 85 -32 85 -33 1 -111 92 -111 131 0 10 -8 33 -18 51 -17 32 -32
70 -83 207 -14 37 -31 66 -41 68 -9 3 -18 15 -20 27 -2 11 -7 19 -11 16 -5 -3
-13 3 -18 13 -6 9 -14 15 -19 12 -6 -3 -20 3 -32 14 -28 27 -36 26 -48 -5 -6
-14 -20 -34 -33 -44 -21 -18 -22 -19 -3 -33 28 -21 1 -33 -30 -12 -32 21 -46
12 -34 -21 6 -14 7 -36 4 -50 -3 -13 -1 -30 4 -37 6 -7 14 -32 18 -55 5 -34
10 -41 24 -37 12 4 21 -3 30 -24 7 -17 18 -36 26 -42 8 -6 14 -20 14 -30 0
-10 16 -31 35 -46 19 -15 35 -36 35 -46 0 -10 7 -31 16 -48 14 -28 14 -31 -8
-48 -19 -16 -23 -29 -23 -78 0 -54 -1 -59 -19 -55 -15 4 -18 2 -12 -13 4 -10
2 -21 -4 -25 -6 -3 -14 -21 -19 -38 -8 -26 -7 -32 6 -32 10 0 13 -6 9 -16 -3
-9 -6 -18 -6 -20 0 -2 -4 -4 -10 -4 -5 0 -10 7 -10 15 0 8 -4 15 -10 15 -5 0
-10 -7 -10 -15 0 -8 5 -15 10 -15 6 0 10 -10 10 -22 0 -13 7 -32 15 -42 8 -11
15 -32 15 -46 0 -44 46 -128 72 -132 26 -4 40 -50 31 -105 -6 -33 -33 -47 -33
-17 0 14 -3 14 -16 3 -10 -8 -18 -9 -22 -3 -4 6 -26 21 -49 34 -24 13 -43 31
-43 40 0 10 -9 29 -21 44 -11 14 -18 30 -14 36 8 13 -25 1 -45 -16 -12 -10
-15 -37 -13 -138 0 -70 -3 -126 -8 -126 -5 0 -9 9 -9 20 0 11 -4 20 -8 20 -9
0 -52 76 -52 92 0 22 -41 67 -58 62 -9 -2 -5 2 10 9 26 12 27 14 12 29 -15 15
-18 14 -39 -10 -22 -25 -22 -25 -27 -4 -4 12 -2 20 3 16 13 -7 11 -1 -10 48
-10 24 -26 49 -35 57 -9 7 -16 20 -16 27 0 7 -9 28 -20 46 -12 20 -20 51 -20
79 0 25 -7 54 -15 65 -8 10 -15 37 -15 59 0 23 -9 53 -20 70 l-20 30 0 -27 c0
-16 5 -28 10 -28 13 0 13 -47 0 -55 -5 -3 -10 -2 -10 3 0 5 -11 21 -24 37 -13
15 -27 46 -30 69 -4 22 -20 68 -36 101 -16 33 -42 112 -58 175 -24 95 -33 117
-53 127 -22 11 -25 10 -31 -15 -4 -15 -8 -137 -8 -272 0 -235 -10 -434 -22
-446 -7 -6 -21 111 -18 136 1 8 2 28 1 43 -2 49 -18 20 -24 -43 -3 -33 -10
-67 -16 -74 -6 -8 -12 -50 -12 -94 0 -71 -3 -84 -25 -107 -14 -16 -24 -38 -24
-56 0 -35 -14 -66 -42 -92 -11 -11 -18 -29 -17 -40 4 -63 -2 -76 -30 -58 -12
8 -12 12 -2 25 11 13 11 19 0 32 -8 10 -9 18 -2 22 9 6 12 35 16 160 1 23 -2
42 -8 42 -6 0 -5 3 1 8 6 4 12 36 12 72 1 44 6 68 15 75 13 9 13 16 0 55 -13
37 -14 71 -8 195 9 165 9 437 0 500 -3 22 -16 70 -29 108 -13 37 -22 76 -19
86 5 21 -12 37 -22 21 -11 -18 -25 -11 -25 14 0 19 -4 22 -25 18 -33 -6 -62 5
-48 19 8 8 17 8 31 0 12 -6 23 -8 26 -3 6 10 -15 37 -36 45 -19 7 -21 20 -9
52 5 11 2 30 -6 45 -7 14 -13 37 -13 52 0 14 -9 55 -20 90 -23 74 -25 157 -5
248 7 36 14 65 13 65 -3 0 17 63 23 71 5 6 13 54 19 106 10 103 20 137 43 156
8 7 15 30 15 53 1 23 8 56 17 75 15 31 14 36 -2 61 -15 23 -18 54 -20 218 -1
105 -6 202 -12 215 -9 23 -10 22 -12 -15 -1 -22 -1 -44 0 -48 1 -4 -4 -18 -10
-30 -7 -12 -22 -58 -35 -102 -12 -44 -32 -113 -44 -154 -11 -41 -40 -113 -62
-160 -44 -91 -131 -211 -153 -211 -7 0 -25 -13 -38 -30 -14 -16 -35 -30 -46
-30 -11 0 -22 -4 -26 -9 -17 -28 -98 -59 -169 -65 -41 -3 -77 -2 -80 2 -2 4
-38 9 -80 10 -107 3 -197 49 -331 167 -21 19 -49 35 -62 35 -12 0 -30 8 -40
19 -10 10 -28 24 -40 30 -13 7 -23 21 -23 34 0 32 -14 49 -33 41 -12 -4 -17
-1 -17 10 0 27 -1 31 -15 46 -9 10 -13 47 -14 118 0 98 1 105 24 127 38 35 32
68 -27 146 -16 20 -28 41 -28 47 0 7 -4 12 -10 12 -5 0 -9 3 -8 8 3 11 -33 76
-50 88 -10 7 -13 18 -8 29 5 13 -1 26 -21 42 -24 21 -29 22 -39 9 -6 -9 -16
-16 -22 -16 -15 0 -25 39 -14 53 6 7 10 44 11 82 0 39 5 93 11 120 6 28 15 79
20 115 5 36 12 81 15 100 21 137 25 170 25 205 -1 50 -10 61 -10 12 0 -19 -5
-48 -11 -64 -12 -29 -19 -62 -39 -193 -6 -41 -18 -100 -25 -130 -7 -30 -18
-89 -24 -130 -6 -41 -16 -97 -22 -125 -5 -27 -15 -86 -20 -130 -6 -44 -16 -84
-22 -90 -7 -6 -12 -37 -12 -70 0 -33 -5 -74 -12 -91 -12 -31 -21 -83 -27 -164
-4 -43 -36 -123 -36 -89 0 9 3 19 7 22 3 4 7 37 9 74 1 38 5 111 8 163 4 52 7
120 7 150 0 30 10 107 21 170 11 63 24 151 28 195 5 44 14 100 20 125 7 25 13
54 15 65 4 24 43 205 55 255 5 19 23 94 41 165 18 72 33 158 33 193 1 34 4 62
9 62 4 0 7 -8 7 -17 1 -17 1 -17 11 0 14 24 8 43 -13 39z m-473 -879 c-13 -70
-45 -101 -45 -44 0 43 17 81 36 81 13 0 15 -7 9 -37z m-55 -165 c0 -21 -10
-61 -32 -123 -6 -16 -10 -41 -10 -55 1 -28 -35 -110 -48 -110 -15 0 -19 28 -6
46 17 27 33 80 46 152 12 69 28 112 42 112 4 0 8 -10 8 -22z m460 -67 c0 -5
-7 -14 -15 -21 -12 -10 -15 -10 -15 2 0 8 3 18 7 21 9 10 23 9 23 -2z m-550
-265 c0 -5 -7 -3 -15 4 -8 7 -12 17 -9 22 7 10 24 -9 24 -26z m366 -322 c-3
-9 -6 -18 -6 -20 0 -3 -4 -3 -10 1 -11 7 -2 35 12 35 6 0 7 -7 4 -16z m-9 -76
c-3 -8 -6 -5 -6 6 -1 11 2 17 5 13 3 -3 4 -12 1 -19z m1573 -214 c0 -19 -3
-34 -8 -34 -9 0 -31 -84 -46 -177 -13 -86 -22 -98 -31 -44 -8 49 3 145 21 180
8 14 14 32 14 39 0 25 30 83 40 77 5 -3 10 -22 10 -41z m-224 -66 c-4 -18 -11
-55 -16 -83 -4 -27 -25 -86 -45 -130 -38 -84 -113 -205 -127 -205 -4 0 -8 -7
-8 -15 0 -8 -5 -15 -10 -15 -6 0 -9 -3 -8 -7 1 -5 -9 -30 -22 -58 -13 -30 -24
-75 -26 -112 -3 -57 -1 -64 31 -105 19 -24 35 -48 35 -54 0 -6 14 -32 32 -59
31 -46 32 -53 30 -134 -3 -94 -24 -151 -74 -202 -33 -32 -35 -45 -9 -54 14 -4
17 -13 14 -38 -5 -38 -5 -51 1 -97 4 -38 -18 -115 -39 -140 -7 -8 -13 -26 -14
-40 0 -55 -8 -116 -17 -135 -6 -11 -10 -46 -9 -79 1 -40 -3 -60 -12 -63 -11
-4 -11 -8 -1 -21 11 -13 10 -15 -12 -9 -14 4 -31 7 -37 7 -7 0 -13 10 -13 22
0 22 0 22 -14 3 -20 -30 -27 -140 -16 -230 6 -44 13 -123 16 -175 8 -128 11
-126 -158 -122 -218 5 -371 53 -474 147 -7 5 -34 29 -62 53 -54 46 -139 167
-193 272 -18 36 -48 84 -66 107 -32 41 -70 142 -93 253 -6 25 -14 61 -19 80
-6 19 -22 87 -37 150 -14 63 -32 130 -40 148 -8 18 -14 43 -14 55 0 12 -6 39
-14 62 -14 40 -29 108 -41 178 -3 20 -10 37 -15 37 -13 0 -13 -42 1 -77 6 -15
15 -48 19 -73 5 -25 18 -83 29 -130 18 -77 31 -139 63 -300 5 -30 16 -75 23
-100 8 -25 16 -67 19 -95 4 -27 9 -67 12 -87 4 -28 2 -38 -8 -38 -19 0 -37 48
-63 175 -21 102 -96 397 -146 575 -82 288 -89 323 -73 347 8 13 16 23 18 23
11 0 47 -72 68 -135 20 -62 23 -66 26 -38 2 17 -4 55 -12 84 -30 101 -20 116
54 78 55 -29 206 -41 270 -22 24 7 50 11 56 9 6 -2 20 1 30 8 46 32 115 27
136 -9 9 -14 75 -18 83 -5 11 18 23 10 42 -27 16 -30 29 -40 64 -51 67 -19 89
-10 89 37 0 63 -11 103 -26 97 -8 -3 -14 -1 -14 4 0 6 4 10 10 10 5 0 12 10
15 23 7 25 41 44 68 39 13 -3 16 -9 12 -23 -4 -13 -2 -19 8 -19 9 0 17 -5 19
-11 3 -9 12 -9 34 -2 30 10 65 -4 91 -37 10 -13 15 -11 40 15 27 29 28 30 31
8 2 -14 10 -23 21 -23 13 0 18 8 18 33 0 48 15 111 27 119 6 5 2 8 -10 8 -32
0 -36 11 -12 37 20 21 23 22 44 8 19 -12 24 -12 34 0 10 12 10 18 -1 31 -31
38 -16 72 46 104 17 9 36 28 43 44 11 22 19 27 38 22 17 -5 24 -2 24 7 0 8 18
19 40 26 22 6 44 21 50 31 6 11 17 20 26 20 8 0 20 11 26 25 6 14 17 25 23 25
7 0 20 16 31 35 24 46 49 48 40 3z m30 -125 c-10 -10 -19 5 -10 18 6 11 8 11
12 0 2 -7 1 -15 -2 -18z m-1183 -99 c-6 -17 13 -19 23 -3 5 8 10 6 16 -6 13
-22 -6 -45 -23 -28 -9 9 -16 8 -28 -4 -15 -15 -16 -14 -21 18 -3 19 -3 47 -1
62 l4 29 17 -28 c10 -15 16 -33 13 -40z m1161 -195 c-1 -110 -5 -141 -20 -171
-17 -32 -21 -35 -37 -23 -42 31 -38 181 7 280 41 89 51 71 50 -86z m199 -168
c4 -16 18 -53 32 -82 14 -29 25 -59 25 -66 0 -7 12 -20 28 -30 15 -9 29 -18
31 -19 1 -2 7 -37 12 -80 6 -53 13 -80 25 -89 15 -10 34 -87 34 -135 0 -8 1
-42 1 -75 3 -127 -1 -224 -11 -315 -7 -52 -14 -119 -17 -148 -3 -29 -9 -55
-14 -58 -5 -3 -9 -18 -9 -35 0 -16 -4 -29 -9 -29 -5 0 -12 -19 -16 -42 -21
-110 -12 139 10 287 4 25 5 132 3 185 -1 8 2 50 7 94 6 65 5 78 -6 74 -8 -3
-15 -21 -16 -44 -1 -21 -3 -48 -4 -59 -1 -11 0 -26 2 -34 2 -7 -2 -16 -8 -18
-7 -3 -13 2 -13 11 0 9 -4 16 -10 16 -5 0 -10 9 -10 20 0 25 -29 38 -41 19 -5
-8 -9 -9 -9 -3 0 6 7 17 15 24 17 14 20 46 5 55 -5 3 -12 -5 -16 -19 -3 -14
-12 -30 -20 -37 -8 -6 -14 -22 -14 -35 0 -12 -5 -26 -10 -29 -16 -10 -24 26
-11 47 8 13 9 24 3 31 -11 13 -6 632 4 648 9 15 21 2 27 -30z m1625 -483 c2
-9 -4 -18 -13 -22 -9 -3 -13 -2 -10 3 3 5 1 12 -5 16 -13 8 -2 27 13 22 7 -2
13 -11 15 -19z m-1552 -306 c-3 -42 -8 -99 -10 -127 -3 -27 -7 -68 -10 -90 -3
-22 -6 -51 -6 -63 0 -16 -7 -26 -21 -29 -15 -4 -19 -13 -17 -32 1 -14 6 -32
11 -38 12 -16 1 -46 -13 -38 -6 4 -9 -6 -8 -27 3 -29 0 -33 -25 -36 -21 -3
-29 2 -36 20 -5 14 -5 30 1 41 7 14 5 23 -11 38 -11 11 -18 25 -15 33 3 8 1
17 -5 21 -14 8 -14 25 -1 25 6 0 10 -7 10 -15 0 -27 18 -15 22 15 3 17 1 30
-4 30 -17 0 -7 32 12 37 11 3 20 13 20 22 0 9 9 23 20 31 11 8 20 19 20 24 0
5 7 17 15 26 13 15 14 19 1 29 -12 10 -12 20 -2 65 7 30 12 64 11 77 -3 31 -1
34 26 36 21 2 22 0 15 -75z m-2880 -4 c11 -24 8 -58 -5 -58 -4 0 -16 6 -26 14
-17 12 -18 18 -7 40 14 32 26 33 38 4z m1 -100 c-3 -8 -6 -5 -6 6 -1 11 2 17
5 13 3 -3 4 -12 1 -19z m1 -71 c16 -19 19 -89 5 -94 -7 -3 -13 1 -13 8 0 7 -6
20 -14 28 -8 9 -18 28 -21 44 -6 23 -4 27 13 27 11 0 24 -6 30 -13z m3553 -88
c8 -36 4 -49 -10 -33 -15 16 -22 76 -9 72 7 -3 16 -20 19 -39z m-1068 -47 c-3
-20 -10 -38 -14 -40 -5 -2 -3 -12 4 -23 9 -15 9 -23 -1 -39 -15 -24 -16 -60
-2 -60 6 0 4 -10 -4 -22 -17 -28 -15 -130 3 -152 11 -14 11 -16 -3 -16 -14 0
-16 -5 -10 -22 4 -13 8 -52 8 -88 l1 -65 -29 2 c-16 1 -33 8 -38 15 -10 15 0
98 14 115 10 12 2 53 -10 52 -28 -4 -42 3 -42 22 0 18 4 20 25 15 27 -7 30 0
19 42 -5 17 -11 21 -23 16 -9 -4 -32 -10 -51 -13 -19 -3 -36 -12 -36 -19 -3
-25 -6 -26 -14 -4 -5 12 -7 29 -4 37 4 8 1 22 -6 29 -9 12 -7 17 9 25 11 6 31
12 45 13 15 1 26 6 26 11 0 5 -7 6 -16 3 -10 -4 -14 -1 -11 6 2 7 15 13 28 14
43 1 49 4 49 19 0 8 7 15 15 15 10 0 15 10 15 34 0 19 5 38 11 42 6 3 8 17 5
29 -4 15 0 30 10 39 23 23 34 11 27 -32z m424 -197 c-4 -8 -11 -15 -17 -15 -7
0 -7 6 0 21 13 23 26 19 17 -6z m-123 -10 c3 -8 1 -27 -4 -41 -6 -14 -7 -36
-4 -49 3 -14 -1 -33 -11 -49 -9 -14 -14 -29 -11 -35 4 -5 -1 -16 -9 -24 -8 -9
-15 -20 -15 -26 0 -17 -10 -13 -41 18 -29 30 -37 51 -19 51 6 0 10 -4 10 -10
0 -5 7 -10 15 -10 11 0 15 12 15 52 0 28 3 48 7 45 3 -4 13 2 20 13 12 16 12
24 3 35 -7 8 -10 22 -6 30 7 19 42 19 50 0z m-456 -106 c-2 -6 -8 -10 -13 -10
-5 0 -11 4 -13 10 -2 6 4 11 13 11 9 0 15 -5 13 -11z m45 -104 c1 -5 -6 -11
-15 -13 -11 -2 -18 3 -18 13 0 17 30 18 33 0z m307 -35 c0 -5 -4 -10 -10 -10
-5 0 -10 5 -10 10 0 6 5 10 10 10 6 0 10 -4 10 -10z m9 -87 c18 -63 12 -81
-15 -45 -15 20 -19 82 -4 82 5 0 14 -17 19 -37z m-2688 -43 c6 0 7 -4 4 -10
-10 -16 -45 -12 -45 6 0 11 5 14 16 10 9 -3 20 -6 25 -6z m2759 -30 c0 -5 -4
-10 -10 -10 -5 0 -10 5 -10 10 0 6 5 10 10 10 6 0 10 -4 10 -10z"/>
<path d="M2400 1951 c0 -10 30 -24 37 -17 3 3 2 9 -2 15 -8 13 -35 15 -35 2z"/>
<path d="M3167 1403 c-2 -5 -1 -19 4 -33 7 -23 7 -23 8 8 1 31 -3 40 -12 25z"/>
<path d="M3010 776 c0 -9 5 -16 10 -16 6 0 10 4 10 9 0 6 -4 13 -10 16 -5 3
-10 -1 -10 -9z"/>
<path d="M3037 753 c-4 -3 -7 -11 -7 -17 0 -6 5 -5 12 2 6 6 9 14 7 17 -3 3
-9 2 -12 -2z"/>
<path d="M3080 4280 c0 -5 5 -10 11 -10 5 0 7 5 4 10 -3 6 -8 10 -11 10 -2 0
-4 -4 -4 -10z"/>
<path d="M1580 4266 c0 -8 5 -18 10 -21 6 -3 10 3 10 14 0 12 -4 21 -10 21 -5
0 -10 -6 -10 -14z"/>
<path d="M1550 4240 c0 -5 5 -10 10 -10 6 0 10 5 10 10 0 6 -4 10 -10 10 -5 0
-10 -4 -10 -10z"/>
<path d="M3090 4218 c0 -7 7 -38 15 -68 28 -101 48 -260 34 -276 -10 -13 -17
-11 -43 14 -46 43 -95 56 -192 48 -101 -7 -132 -18 -144 -51 -5 -14 -14 -25
-20 -25 -6 0 -10 -12 -8 -27 3 -26 5 -27 59 -26 31 1 76 7 100 12 24 6 71 11
105 11 51 0 65 -4 88 -25 45 -42 31 -58 -26 -29 -35 18 -140 26 -172 14 -12
-5 -48 -17 -80 -26 -33 -10 -68 -26 -77 -35 -9 -9 -23 -19 -30 -21 -11 -4 -11
-11 4 -36 9 -16 17 -40 17 -51 0 -20 14 -26 48 -22 25 4 117 -32 145 -55 16
-13 38 -24 50 -24 39 0 98 21 137 48 36 25 39 32 50 105 7 42 17 80 21 83 5 3
6 11 2 17 -4 6 -8 40 -8 74 -2 47 1 63 12 63 7 0 13 -8 14 -17 0 -12 2 -13 6
-5 4 10 8 10 19 1 11 -9 18 -9 26 -1 9 9 8 12 -5 12 -10 0 -19 11 -22 28 -3
15 -10 41 -16 57 -19 52 -22 77 -11 84 21 13 -11 85 -55 125 -25 22 -43 33
-43 24z"/>
<path d="M1514 4197 c-3 -9 -3 -25 1 -34 6 -16 8 -16 18 5 7 16 7 26 -1 34 -8
8 -13 7 -18 -5z m13 -19 c-3 -8 -6 -5 -6 6 -1 11 2 17 5 13 3 -3 4 -12 1 -19z"/>
<path d="M1380 4130 c0 -5 5 -10 10 -10 6 0 10 5 10 10 0 6 -4 10 -10 10 -5 0
-10 -4 -10 -10z"/>
<path d="M1355 4070 c-3 -5 -1 -10 4 -10 6 0 11 5 11 10 0 6 -2 10 -4 10 -3 0
-8 -4 -11 -10z"/>
<path d="M1345 4011 c-3 -5 -1 -12 5 -16 5 -3 10 1 10 9 0 18 -6 21 -15 7z"/>
<path d="M3208 3840 c3 -8 7 -27 10 -42 6 -36 22 -26 22 13 0 18 -5 29 -14 29
-8 0 -16 3 -19 8 -2 4 -2 0 1 -8z"/>
<path d="M2399 3350 c-23 -27 -51 -50 -61 -50 -22 0 -41 -35 -34 -63 7 -30 28
-41 139 -71 83 -23 102 -25 144 -16 26 6 52 15 58 19 5 5 26 11 47 15 40 7 55
28 33 46 -11 9 -23 9 -46 1 -52 -18 -72 -13 -123 29 -26 22 -56 40 -66 40 -27
0 -43 26 -38 65 2 19 1 35 -3 35 -4 0 -26 -22 -50 -50z m35 -46 c22 -8 10 -24
-19 -24 -25 0 -39 12 -28 24 8 8 27 8 47 0z"/>
<path d="M3201 3334 c0 -11 3 -14 6 -6 3 7 2 16 -1 19 -3 4 -6 -2 -5 -13z"/>
<path d="M2139 3008 c-18 -25 -19 -30 -5 -55 8 -15 28 -41 45 -57 17 -16 34
-45 37 -63 3 -18 12 -37 19 -41 7 -4 21 -23 32 -42 15 -26 31 -38 74 -53 30
-10 68 -21 84 -23 17 -2 44 -7 60 -11 17 -4 34 -6 40 -4 5 1 22 3 37 3 26 1
32 7 26 26 -2 4 -24 5 -49 4 -29 -2 -58 2 -77 12 -17 9 -41 18 -54 19 -20 3
-23 11 -26 52 -3 52 -8 49 58 29 29 -9 25 13 -9 47 -19 19 -40 29 -59 29 -17
0 -32 6 -35 14 -3 8 -18 16 -33 18 -33 4 -45 28 -14 28 11 0 32 7 45 16 14 9
32 14 40 11 8 -4 30 0 48 8 29 12 38 12 60 0 16 -8 41 -11 60 -8 34 5 157 -31
157 -47 0 -11 -33 -37 -57 -44 -13 -4 -23 -11 -23 -14 0 -18 41 -39 83 -44
l46 -5 30 49 c33 53 38 80 19 96 -17 13 -139 49 -219 64 -35 6 -144 12 -242
13 l-179 1 -19 -28z"/>
<path d="M1905 2750 c3 -5 8 -10 11 -10 2 0 4 5 4 10 0 6 -5 10 -11 10 -5 0
-7 -4 -4 -10z"/>
<path d="M3680 2294 c0 -23 1 -24 16 -10 8 9 12 20 9 26 -12 19 -25 10 -25
-16z"/>
<path d="M3712 2268 c3 -7 13 -15 22 -16 12 -3 17 1 14 10 -3 7 -13 15 -22 16
-12 3 -17 -1 -14 -10z"/>
<path d="M3775 2240 c-3 -5 1 -10 10 -10 9 0 13 5 10 10 -3 6 -8 10 -10 10 -2
0 -7 -4 -10 -10z"/>
<path d="M560 2204 c0 -17 22 -14 28 4 2 7 -3 12 -12 12 -9 0 -16 -7 -16 -16z"/>
<path d="M3440 2115 c0 -14 5 -25 10 -25 6 0 10 -9 10 -21 0 -11 4 -18 9 -14
5 3 12 1 16 -5 8 -13 25 -13 25 1 0 6 -9 13 -20 16 -11 3 -20 13 -20 23 0 25
-10 50 -21 50 -5 0 -9 -11 -9 -25z"/>
<path d="M442 2054 c4 -21 22 -23 26 -1 2 10 -3 17 -13 17 -10 0 -15 -6 -13
-16z"/>
<path d="M3935 2022 c10 -21 22 -32 32 -30 22 4 19 22 -4 27 -10 2 -23 11 -31
20 -8 9 -6 2 3 -17z"/>
<path d="M3463 2014 c-6 -13 -8 -26 -3 -29 4 -3 11 7 14 21 9 35 4 39 -11 8z"/>
<path d="M4050 1951 c0 -6 5 -13 10 -16 6 -3 10 1 10 9 0 9 -4 16 -10 16 -5 0
-10 -4 -10 -9z"/>
<path d="M4080 1930 c0 -5 5 -10 10 -10 6 0 10 5 10 10 0 6 -4 10 -10 10 -5 0
-10 -4 -10 -10z"/>
<path d="M4070 1821 c0 -11 7 -26 15 -35 8 -8 12 -21 9 -29 -5 -15 21 -31 37
-21 13 8 11 18 -8 64 -19 43 -53 56 -53 21z"/>
<path d="M4210 1766 c0 -3 11 -24 25 -47 14 -22 23 -43 21 -48 -8 -13 17 -71
31 -71 20 0 16 28 -13 86 -23 46 -64 98 -64 80z"/>
<path d="M4530 1444 c1 -5 7 -20 15 -34 13 -24 14 -24 15 -4 0 12 -7 27 -15
34 -8 7 -15 9 -15 4z"/>
<path d="M4020 1308 c0 -42 29 -213 43 -259 8 -24 21 -69 31 -100 9 -31 26
-69 37 -83 21 -27 22 -27 35 -7 8 11 12 31 10 43 -3 13 -8 69 -11 125 -6 108
-19 143 -101 260 -33 48 -44 53 -44 21z"/>
<path d="M4580 1210 c0 -5 5 -10 10 -10 6 0 10 5 10 10 0 6 -4 10 -10 10 -5 0
-10 -4 -10 -10z"/>
<path d="M3458 1003 c-2 -27 -1 -70 2 -98 6 -42 8 -34 9 48 1 104 -4 126 -11
50z"/>
<path d="M66 752 c-3 -6 -1 -14 5 -17 14 -9 20 -2 10 14 -6 8 -11 9 -15 3z"/>
<path d="M0 243 l1 -168 31 34 c28 31 30 38 25 82 -7 59 8 73 38 36 22 -29 55
-36 55 -13 0 8 -4 18 -10 21 -5 3 -10 19 -10 34 0 38 -37 88 -87 117 l-43 25
0 -168z"/>
</g>
</svg>
